PathFileType	4	(X/Y/Z)	Patient4_TMGait_0pt4_01_right_22.trc.trc
DataRate	CameraRate	NumFrames	NumMarkers	Units	OrigDataRate	OrigDataStartFrame	OrigNumFrames
80.000000000000	80.000000000000	4	33	mm	80.000000000000	36	       141
Frame#	Time	Sacral			L.Shoulder			Chest			R.Shoulder			Neck			R.ASIS			L.ASIS			R.Thigh.Superior			R.Thigh.Lateral			R.Thigh.Inferior			R.Patella			L.Thigh.Superior			L.Thigh.Lateral			L.Thigh.Inferior			L.Patella			L.Shank.Superior			L.Shank.Lateral			L.Shank.Inferior			R.Shank.Superior			R.Shank.Lateral			R.Shank.Inferior			R.Heel			R.Midfoot.Superior			R.Midfoot.Lateral			R.Toe			L.Heel			L.Midfoot.Lateral			L.Midfoot.Superior			L.Toe			L.Elbow			L.Wrist			R.Elbow			R.Wrist			
		X1	Y1	Z1	X2	Y2	Z2	X3	Y3	Z3	X4	Y4	Z4	X5	Y5	Z5	X6	Y6	Z6	X7	Y7	Z7	X8	Y8	Z8	X9	Y9	Z9	X10	Y10	Z10	X11	Y11	Z11	X12	Y12	Z12	X13	Y13	Z13	X14	Y14	Z14	X15	Y15	Z15	X16	Y16	Z16	X17	Y17	Z17	X18	Y18	Z18	X19	Y19	Z19	X20	Y20	Z20	X21	Y21	Z21	X22	Y22	Z22	X23	Y23	Z23	X24	Y24	Z24	X25	Y25	Z25	X26	Y26	Z26	X27	Y27	Z27	X28	Y28	Z28	X29	Y29	Z29	X30	Y30	Z30	X31	Y31	Z31	X32	Y32	Z32	X33	Y33	Z33	

36	28.767500000000	807.944875455971	993.460572374882	459.643836660439	976.202407025178	1431.744674280355	277.960875881048	1074.883023365318	1369.061131366281	443.252603619007	978.821351844880	1442.773071184677	611.934313236241	967.092049205306	1493.796221231798	431.743462577261	1039.646996512164	945.790085561062	583.308026404825	1028.376481706516	964.174855376940	309.528534882418	1101.757911182154	749.053124961090	549.096841244609	1033.686255192290	633.338059897504	612.970238036052	1112.993379082313	587.621406405254	529.952414550341	1122.654408183769	498.901849507181	536.488094154493	1067.121491633749	740.249623633407	331.828678797504	974.722000078709	627.849034393774	264.427512666268	1057.992891181362	542.081987712752	322.063268339098	1050.464444871525	459.187374718351	318.503560398138	988.768653533331	399.310397331578	313.671253074132	855.187261425594	337.332366274079	267.285563022808	858.288334514539	209.092095880150	325.515163441523	1096.889620509613	408.542581743645	547.325521558284	1033.489925559064	304.690425560660	617.177773825642	1073.769512126716	209.213511531211	553.761692010230	942.696594283199	43.102049402627	537.877747068637	1115.656167379968	98.618476298798	562.881824632056	1030.635544051775	37.639392677500	607.199843695511	1237.486857079698	45.579045512618	582.973903020071	679.581232215721	110.061680400610	365.495065431629	746.186148473083	76.769834169810	287.203181204514	845.385370632050	109.862640456529	308.560592552367	946.198559226051	34.592107748283	285.312957605867	949.316133021148	1081.907960640982	160.894039875403	1072.553466884705	849.614127884215	148.101453190144	905.949456196535	1107.440407983923	737.460691955263	998.040057664165	862.633442972503	743.470447195427	
37	28.780000000000	808.646735728073	993.832545164018	463.514065396211	975.807889190239	1432.319300777012	281.217068030694	1075.604379191912	1369.502151779670	445.730460678736	980.926775526197	1442.856996651801	615.092158022626	967.695319518638	1494.092973190519	435.200064719611	1041.062918953562	946.047329983650	585.631330526514	1027.969003066367	964.469434131845	311.974857130376	1101.554164190092	748.523304143458	552.166107682941	1031.939473398345	633.184818182623	615.374708177474	1111.376389651171	587.053777953884	532.691552665219	1120.084895618896	498.314642632338	538.671202042635	1071.038347082828	742.237299881858	334.231459644294	983.249940860246	628.027280465874	265.674671698190	1068.944692509042	543.849434759017	323.199051434991	1062.382209142613	459.844716529150	318.622598718914	998.862881725775	400.142635446222	313.982919253738	863.165499674623	342.616000805699	267.822749534543	862.670252586736	214.225256680109	325.522262324770	1093.911810177791	408.035063555347	549.133325603307	1029.839652244963	304.274444242629	618.640329986793	1069.613451901010	208.861172590406	554.710551262270	937.640785045543	43.039135876881	538.070225362398	1110.740162957392	98.484264920484	563.210264232711	1025.599624196272	37.544178187147	607.424051873941	1232.531953066396	45.319569046907	583.112640018204	680.573872574016	123.396013312782	365.568949154477	745.262330586742	86.340070579844	287.300203353267	846.181593933412	114.024633790264	308.334799454480	941.819760621685	33.689401439998	285.435709083317	945.989951912942	1082.766067662011	164.264181400107	1063.228936548674	847.479855073159	149.219161267819	912.682212573445	1106.895420646086	742.153374895104	1014.833932003744	866.225788778791	744.603706881458	
38	28.792500000000	809.106378794871	994.097625466545	467.295550834920	975.259812609519	1432.707003617341	284.363659459301	1076.260537366516	1369.723733255848	448.046166627246	983.129287737312	1442.750827047029	618.111619734466	968.289069577444	1494.236708638434	438.551840598051	1042.255594315087	946.132744417995	587.755380948898	1027.310017478358	964.541553235520	314.222739701885	1101.017764837015	747.886059015460	555.052537533747	1030.075038548988	632.990614475927	617.764496792858	1109.506921276285	586.436214081018	535.306110818674	1117.296142820771	497.689625814002	540.885916848549	1075.091147546225	744.470217894575	336.429204275221	991.990652417606	628.410684933179	266.836142282978	1080.053558626814	546.019892322552	324.351120998112	1074.597282215176	460.979312428376	319.017432113088	1009.425603187350	401.295380073659	314.488283613826	871.831956043948	348.151920430138	268.404260635818	867.679758792938	219.797760915390	325.790944808085	1090.751012176651	407.479179312291	550.974231710789	1026.031254343797	303.793173740842	620.160276174557	1065.332773646863	208.466881770663	555.692772022427	932.485507279192	42.942812557032	538.273245549693	1105.738158879259	98.304601857009	563.544216448973	1020.467032241281	37.414917755790	607.654206868423	1227.486699806478	45.031070784536	583.225135145582	682.493891629531	137.290026092115	365.872916693868	745.162673545982	96.750654492805	287.552619888262	847.596112590581	118.895860036256	308.378334518991	937.948141969627	32.878033705006	285.550041269528	942.445959243460	1083.484617113997	167.429316613262	1053.878422838158	845.522068699236	150.322103789804	919.546767163653	1106.306471877716	746.914354955978	1031.584881041565	870.219881315888	745.784079350061	
39	28.805000000000	809.342278130391	994.275795528526	470.931492619024	974.571222465348	1432.949478456174	287.377653745977	1076.849800993979	1369.742135215618	450.173649552762	985.405552625352	1442.476490552342	620.979069258761	968.883522243783	1494.261040159718	441.773456613845	1043.219814965506	946.084998497508	589.679277909893	1026.432099879060	964.415456222538	316.260238662368	1100.202744137878	747.202389252686	557.662456322260	1028.195431412149	632.787642868223	620.091182448573	1107.448643152454	585.802277634676	537.718547395388	1114.358361662959	497.052497862337	543.063507672693	1079.161128014383	746.965942490301	338.418909250498	1000.711010428608	629.074792364228	267.924534433433	1091.062887529170	548.640872676091	325.492959530237	1086.872366768033	462.646403504505	319.650461148230	1020.239727331773	402.822816099644	315.164203533743	880.981190865098	353.866449001853	269.056910443209	873.253493836622	225.690826179675	326.313097468101	1087.469739194236	406.900989953792	552.790693102499	1022.137591859647	303.285293052826	621.693271761719	1060.976899893938	208.056478616590	556.673055007406	927.280503087989	42.829352216025	538.483763042984	1100.687389091729	98.113266916515	563.878550069654	1015.283806008171	37.273733885123	607.888421814299	1222.390359898687	44.752134015958	583.324757219882	685.369933182535	151.255610202010	366.442791236071	746.005309523450	107.641972771219	287.982396743027	849.703152423475	124.368225481534	308.681771271662	934.874664533742	32.299358856965	285.624815109099	938.652351036707	1084.089879848469	170.422615125291	1044.514725179393	843.759222509755	151.416510486217	926.633538324160	1105.658701598486	751.677165648676	1048.239496956587	874.538614399820	746.982429232812	
